<?xml version="1.0" standalone="no"?>
<!DOCTYPE svg PUBLIC "-//W3C//DTD SVG 20010904//EN"
 "http://www.w3.org/TR/2001/REC-SVG-20010904/DTD/svg10.dtd">
<svg version="1.0" xmlns="http://www.w3.org/2000/svg"
 width="226.000000pt" height="191.000000pt" viewBox="0 0 226.000000 191.000000"
 preserveAspectRatio="xMidYMid meet">

<g transform="translate(0.000000,191.000000) scale(0.100000,-0.100000)"
fill="#000000" stroke="none">
<path d="M0 955 l0 -955 1130 0 1130 0 0 955 0 955 -1130 0 -1130 0 0 -955z
m1070 100 c0 -51 -3 -65 -15 -65 -8 0 -15 9 -15 20 0 11 -15 36 -33 56 -24 26
-43 37 -75 41 l-42 6 0 -97 c0 -53 2 -96 4 -96 27 0 56 24 66 54 20 61 30 40
30 -59 0 -58 -4 -95 -10 -95 -6 0 -13 13 -16 30 -7 33 -18 44 -51 54 -23 7
-23 6 -23 -88 l0 -95 33 -4 c17 -2 -38 -4 -123 -4 -85 0 -143 2 -127 4 l27 4
0 194 0 194 -27 4 c-16 2 68 5 185 6 l212 1 0 -65z m459 36 c20 -14 44 -46 59
-79 33 -72 27 -152 -15 -219 -48 -78 -68 -83 -288 -82 -104 1 -178 4 -162 6
l27 4 0 194 0 194 -27 4 c-16 3 62 4 172 3 194 -1 201 -2 234 -25z"/>
<path d="M1340 915 c0 -181 1 -195 18 -195 38 0 42 18 42 201 0 152 -2 178
-16 183 -44 17 -44 16 -44 -189z"/>
</g>
</svg>
